
		<svg xmlns="http://www.w3.org/2000/svg" viewBox="0 0 16 16">
			<g fill="none" fill-rule="nonzero">
				<path fill="#1B7AC8" d="M4.5 0C5.32842712 0 6 .67157287 6 1.5V13c0 1.6568542-1.34314575 3-3 3s-3-1.3431458-3-3V1.5C0 .67157287.67157287 0 1.5 0ZM3 11c-1.1045695 0-2 .8954305-2 2s.8954305 2 2 2 2-.8954305 2-2-.8954305-2-2-2Z" />
				<path fill="#004795" d="M7.5 12.743V4.257l1.51-1.51c.28133215-.28151251.6630087-.43967977 1.061-.43967977.3979913 0 .7796678.15816726 1.061.43967977l2.121 2.121c.2815125.28133215.4396798.6630087.4396798 1.061 0 .3979913-.1581673.77966785-.4396798 1.061L7.5 12.743Z" />
				<path fill="#001462" d="M6.364 16H14.5c.8284271 0 1.5-.6715729 1.5-1.5v-3c0-.8284271-.6715729-1.5-1.5-1.5h-2.136l-6 6Z" />
			</g>
		</svg>
	